<svg width="806" height="806" viewBox="0 0 806 806" fill="none" xmlns="http://www.w3.org/2000/svg">
  <path
    d="M6.30769 82.8C22.7281 97.5 38.6478 112.8 55.6689 126.7C68.9854 137.6 83.2031 147.7 97.8212 156.8C114.141 166.9 131.363 175.8 148.484 184.6C159.698 190.3 171.212 195.9 183.127 199.9C206.957 207.8 231.087 214.9 255.317 221.8C271.737 226.6 272.438 226.5 277.945 243.1C284.453 262.8 290.16 282.9 297.269 302.4C304.177 321.6 311.787 340.6 320.197 359.2C329.609 380.1 340.222 400.5 350.435 421.1C352.838 426 355.641 430.6 358.845 436.5C354.039 436.3 349.934 436.4 345.929 435.9C321.098 432.4 298.37 437.2 277.644 451.6C267.732 458.5 257.62 465.3 247.106 471.2C234.19 478.4 219.572 478.6 205.355 479.4C196.644 479.9 187.933 479.5 179.122 479.1C193.64 476.5 206.456 470 219.072 463.1C229.785 457.2 239.897 450.1 250.21 443.4C264.828 433.9 279.747 424.7 297.068 421.6C309.884 419.3 323.201 420 336.317 419.5C338.119 419.4 339.922 419.9 341.824 420C342.224 420 342.725 419.7 343.426 419.5C342.725 415.8 340.923 414.3 337.018 414C326.605 413.4 316.092 412.8 305.779 411.4C287.456 408.9 270.135 411.5 253.815 419.8C222.576 435.7 189.936 446.5 154.792 449.1C143.978 449.9 133.165 449.2 122.051 449.2C129.16 446.9 136.369 444.9 143.378 442.2C152.089 438.9 160.699 435.3 169.21 431.5C191.538 421.7 213.865 411.7 236.293 402C258.12 392.5 281.249 390 304.678 389.7C306.78 389.7 308.883 389.4 311.186 388.1C310.085 387.7 309.083 387.2 307.982 387C276.543 379.9 245.404 380.6 213.965 388.6C191.537 394.3 168.809 398.9 145.981 402.4C120.349 406.3 95.4182 402.4 71.9892 390.8C59.5738 384.7 47.659 377.7 35.5439 371.1C34.4426 370.5 33.4413 369.6 32.5402 368.9C46.2572 370.6 59.8741 372.9 73.5912 373.8C102.227 375.8 130.962 374.8 159.197 369.4C178.321 365.7 197.144 360.4 216.068 355.9C231.587 352.2 247.207 348.8 262.826 345.1C267.732 343.9 272.638 342.3 277.344 339.7C271.136 339.7 264.929 339.5 258.721 339.8C251.912 340.1 245.104 341 238.296 341.4C215.667 342.7 193.139 344.4 170.511 345C147.583 345.6 124.454 346.4 101.626 344.6C80.3996 342.9 59.9743 336.2 41.251 325.3C28.6354 317.9 17.5216 308.8 7.00854 298.9C4.60556 296.7 2.10246 294.6 0.0999756 291.7C0.900969 291.9 1.80209 292 2.60308 292.4C26.5328 305.2 52.2647 312.2 79.098 316C110.337 320.3 141.475 319.9 172.714 315.5C184.228 313.9 195.943 313.7 207.457 312.1C215.067 311 222.576 308.4 230.185 306.9C235.192 305.9 240.398 305.7 245.504 305.2C247.407 305 249.309 304.8 251.111 303.5C244.103 302.4 237.194 301.1 230.085 300.3C213.865 298.4 197.645 296.2 181.425 295.2C153.991 293.5 126.557 291.4 99.8237 284.7C82.302 280.3 65.8816 272.9 51.5638 261.4C33.8418 247.2 19.8245 229.8 8.71067 210C6.50793 206 3.80458 202.3 0.800857 197.7C6.70819 202.9 11.7144 207.6 17.1211 211.9C33.141 224.7 51.1633 234.2 70.4873 240.7C89.7111 247.2 109.035 253.8 128.86 257.8C151.588 262.4 175.017 264.1 198.046 267C206.456 268 214.866 268.9 223.177 269.8C223.377 269.2 223.577 268.6 223.677 268C211.462 263.3 199.447 257.7 186.932 254C165.205 247.6 143.077 242.2 123.053 231.6C109.035 224.2 95.4182 215.5 82.7025 206C72.4898 198.4 63.1782 189.4 54.7678 179.8C43.4538 167 34.2423 152.6 26.4326 137.2C17.9221 120.4 12.215 102.8 7.00854 85C6.4078 84.1 6.30769 83.1 6.30769 82.8Z"
    fill="#bd35ff" />
  <path
    d="M586.428 311.6C602.548 313.1 618.567 314.8 634.687 315.8C655.814 317.1 676.94 318.3 698.066 318.5C715.888 318.7 733.51 315.3 750.932 311.6C769.355 307.7 786.876 301.7 802.896 291.9C803.497 291.5 804.398 291.4 805.7 292C799.091 298.3 792.483 304.6 785.875 310.9C776.764 319.7 765.349 325 754.236 330.6C738.316 338.6 721.095 343.7 703.473 344.6C679.843 345.8 656.214 345.4 632.585 344.7C605.952 343.9 579.419 341.9 552.786 340.6C544.576 340.2 536.265 340.5 528.055 340.5C527.955 341 527.855 341.5 527.755 342C529.557 342.7 531.359 343.5 533.262 343.9C550.984 347.6 568.906 351 586.628 355C604.65 359.1 622.372 364.3 640.495 367.9C654.812 370.8 669.43 373.2 684.049 373.6C706.276 374.1 728.604 372.9 750.932 371.7C759.142 371.3 767.252 369.1 775.662 368.1C771.157 370.4 766.651 372.7 762.146 375C748.328 382 735.012 390 720.694 395.7C694.762 406 667.929 405 641.095 399.3C614.362 393.7 587.729 387.7 560.796 382.9C540.771 379.3 520.546 381 500.821 386.2C498.118 386.9 495.615 388.2 493.112 390C496.716 390 500.321 390.2 503.925 390C520.746 388.7 537.367 390.7 553.086 396.5C574.112 404.3 594.638 413.3 615.363 421.9C631.984 428.8 648.404 435.9 665.125 442.7C671.233 445.2 677.641 446.8 684.649 449.1C673.435 449.1 663.023 449.9 652.71 448.9C631.784 447 611.058 443.8 591.133 436.6C582.423 433.4 574.012 429.3 565.502 425.6C549.181 418.7 533.161 410.1 514.739 410.4C496.716 410.7 478.694 412.1 462.073 419.9C456.967 422.3 452.261 425.6 446.954 428.7C451.26 421.4 455.365 414.5 459.37 407.5C465.377 397 471.485 386.5 477.092 375.7C483.099 364.2 489.207 352.7 494.113 340.8C501.222 323.6 507.43 306 513.637 288.5C519.845 270.8 525.652 252.9 531.459 235C533.262 229.4 537.066 225.9 542.173 224C547.78 221.9 553.687 220.6 559.394 218.7C584.225 210.7 609.256 203.2 633.987 194.6C655.713 187 676.139 176.2 695.763 164.4C710.381 155.7 724.399 145.7 737.916 135.3C753.435 123.3 768.153 110.3 782.871 97.4C788.578 92.4 793.384 86.5 798.691 81C799.191 81.2 799.692 81.4 800.093 81.6C795.287 95.3 790.781 109.2 785.575 122.8C782.671 130.5 779.067 138.1 775.062 145.3C764.849 163.8 752.033 180.2 736.514 194.6C717.29 212.4 695.963 227 671.533 236.6C654.712 243.2 636.99 247.8 619.869 253.6C610.758 256.7 601.847 260.5 592.936 263.9C589.031 265.4 585.026 266.8 581.221 269.3C588.53 268.8 595.939 268.5 603.248 267.6C628.88 264.3 654.612 261.9 679.944 257.1C703.673 252.6 726.702 245.3 748.829 235.2C766.05 227.3 782.17 217.9 796.488 205.6C799.292 203.2 801.895 200.7 804.598 198.2C804.798 198.3 804.999 198.4 805.199 198.5C795.387 212.7 786.576 227.6 775.662 240.8C759.442 260.4 738.817 274.2 714.186 281.6C687.953 289.5 661.02 292.1 633.886 294.1C612.96 295.6 592.135 298 571.309 300.2C565.101 300.8 558.993 302.2 552.886 303.9"
    fill="#bd35ff" />
  <path
    d="M460.171 284.5C458.369 292.4 455.966 294.4 448.757 294.3C439.345 294.2 430.434 295.7 423.225 302.3C414.414 310.3 410.81 320.4 410.309 332.1C409.608 349.3 417.818 362.8 428.231 375.2C430.734 378.2 435.04 379.9 438.644 381.7C446.754 385.8 449.758 393.1 444.752 401C438.444 410.9 436.542 422 436.341 432.9C436.141 442 438.344 451.5 441.348 460.2C446.554 475.3 454.264 489.4 463.976 502.2C475.59 517.4 490.108 529.6 505.427 540.8C525.051 555.1 547.179 564.2 570.308 571C571.109 571.2 571.809 571.6 573.812 572.3C562.398 574.5 552.285 574.6 542.173 573.8C515.44 571.6 492.211 560.4 470.384 545.8C450.159 532.3 433.137 515.3 417.618 496.7C408.106 485.4 398.094 474.4 389.283 462.6C382.274 453.2 376.367 442.9 370.36 432.7C365.654 424.7 361.849 416.2 357.544 408C352.037 397.6 350.034 386.3 350.034 374.7C350.034 366.2 351.236 357.7 352.037 348.6C355.741 357.9 359.246 366.5 362.65 375.2C363.151 375.1 363.751 375 364.252 374.9C356.342 354.4 359.246 335.3 370.36 317.3C369.859 326.8 369.358 336.6 368.858 346.3C369.258 346.4 369.659 346.4 370.059 346.5C373.263 322.4 383.876 301.5 397.693 280.9C382.274 279.3 370.159 273.9 368.958 256.4C375.166 266 385.178 266.6 394.99 267.5C400.096 268 405.303 267.8 410.509 267.3C419.22 266.6 426.429 269.4 432.837 275.1C436.341 278.2 440.046 281 443.65 283.9C448.757 288.4 454.163 290.5 460.171 284.5Z"
    fill="#bd35ff" />
  <path
    d="M146.382 720.2C161.4 718.5 176.419 716.7 191.437 715.1C225.179 711.4 258.821 706.5 291.762 698.2C305.379 694.7 318.495 689.1 331.511 683.6C342.825 678.8 353.839 673.2 364.352 667C382.174 656.5 396.892 642.5 409.909 626.4C420.121 613.8 427.33 599.7 433.838 585.2C440.947 569.2 443.751 552.2 443.25 534.6C448.957 538.8 454.464 543.1 460.271 547.1C466.479 551.3 472.787 555.4 479.295 559C483.8 561.5 486.504 564.8 488.206 569.7C493.913 586.8 499.019 603.8 500.221 622C501.722 643.8 495.214 662.6 482.399 679.7C466.279 701.1 443.05 713.1 419.921 725.2C423.525 721 426.93 716.8 430.634 712.7C443.45 698.6 451.761 681.9 459.07 664.5C464.576 651.3 467.68 637.6 466.679 623.2C466.278 616.6 465.377 610 464.777 603.4C461.873 612.3 458.969 620.9 456.066 629.6C450.159 647.7 438.744 661.9 424.527 674.2C404.101 692.1 380.272 703.3 354.239 710.6C325.504 718.6 296.067 721.9 266.33 722.4C241.8 722.9 217.27 723 192.839 722.8C177.42 722.7 161.901 721.6 146.482 721C146.482 720.7 146.382 720.5 146.382 720.2Z"
    fill="#bd35ff" />
  <path
    d="M626.778 479C608.555 480.8 590.432 479.6 572.61 476.4C560.195 474.2 549.782 467.3 539.87 459.9C521.046 446 501.022 435.3 477.092 434.2C469.983 433.9 462.774 434.7 455.665 435C453.563 435.1 451.46 435 449.358 435C449.057 434.4 448.857 433.8 448.557 433.2C452.161 430.6 455.565 427.4 459.47 425.6C477.693 417.2 496.015 416.7 515.239 423.5C532.661 429.6 547.78 439.3 562.898 449.3C581.922 461.8 601.747 472.5 623.974 478.1C624.975 478.4 625.877 478.7 626.778 479Z"
    fill="#bd35ff" />
  <path
    d="M297.369 649.6C369.058 639 412.111 594.8 434.84 527.3C440.446 533.8 427.43 579.8 415.315 599.2C389.984 640 338.82 656.1 297.369 649.6Z"
    fill="#bd35ff" />
  <path
    d="M461.072 440.9C476.391 442.2 489.407 449 500.521 459.2C508.931 466.9 517.041 475.1 524.951 483.3C534.163 492.8 545.176 499.6 557.191 504.7C567.104 508.8 577.516 511.9 587.729 515.3C589.932 516 592.235 516.2 595.138 516.7C584.525 519.9 574.112 519.7 563.9 518.4C549.382 516.5 535.064 513.2 523.75 503.4C516.541 497.2 510.033 489.8 504.426 482C494.113 467.9 482.899 454.9 468.281 445.1C465.978 443.5 463.475 442.3 461.072 440.9Z"
    fill="#bd35ff" />
  <path
    d="M340.422 441C332.112 448.4 323.401 455.4 315.792 463.3C308.983 470.3 302.776 478 297.369 486C285.454 503.7 268.633 513.4 248.108 516.9C236.193 518.9 224.078 519.6 212.063 519.8C223.778 514.9 235.592 510.1 247.207 505C260.523 499.1 272.438 491.4 282.551 480.5C293.064 469.1 303.276 456.9 317.694 449.8C325.103 446.2 332.813 443.3 340.322 440.1C340.322 440.4 340.422 440.7 340.422 441Z"
    fill="#bd35ff" />
</svg>