<svg width="316" height="319" viewBox="0 0 316 319" fill="none" xmlns="http://www.w3.org/2000/svg">
<path d="M167.3 181.3H128.2C132.5 192.1 140.3 203 152.1 215C189.5 252.9 161.6 318.6 161.6 318.6C161.6 318.6 213.5 272.5 188.4 227.2C178.6 209.3 170.2 194.2 167.3 181.3Z" fill="url(#paint0_linear_5_5)"/>
<path d="M143 155.4C144.9 128.9 175.8 120.1 175.8 120.1C175.8 120.3 174.8 120.5 174.8 120.8C174.4 122.5 182.6 127.9 183.3 129.7C186.3 137.2 189.1 144.8 197.3 144.8C205.6 144.8 212.3 136.4 212.3 126.1C212.3 120.4 210.2 115.2 206.9 111.8C208.8 110 210.9 108.2 213 106.4C250.1 75.8 237 9.1 201 0.799999C201 0.799999 224.3 -0.600004 238 14.2C242.7 19.2 249.1 29.2 248.7 42.9C250.8 39.2 252 33.3 249.7 25.7C253 29.9 256.1 34.9 258.6 40.6C277.2 82.4 236 126.1 236 126.1C236 126.1 305.8 71.5 261.7 28C261.7 28 294 42.3 294 73.9C294 82.5 290.6 95 278.1 105.4C278.1 105.4 288 102.8 295 91.8C295.2 96.5 294.3 103.7 287.6 113C247 169.5 305.3 141.8 315.2 107.3C315.2 107.3 318.8 125 309.3 143.4C303.3 155.1 293.3 163.9 269.2 169.9C269.2 169.9 279.7 172 291.5 167.2C286.8 175.3 274.7 183.9 262.8 190.1C206.4 219.3 291.5 197.7 314.7 161.9C314.6 162.6 308.3 191.2 284 215.3C274.9 223.2 257.6 233.5 229 233.3C229 233.3 239.4 236.6 256.9 234.8C244.5 241.1 229.6 245.7 211.7 247.3C208.3 272.8 193.4 294.4 193.4 294.4C193.4 294.4 201.2 262 189.6 242.9C179.4 226.2 141.2 181.5 143 155.4Z" fill="url(#paint1_linear_5_5)"/>
<path d="M166.2 261C166.2 277.7 158 299.8 158 299.8C158 299.8 149.8 277.7 149.8 261C149.8 244.3 158 230.3 158 230.3C158 230.3 166.2 244.3 166.2 261Z" fill="url(#paint2_linear_5_5)"/>
<path d="M158 241.3C158 241.3 164.5 252.4 165.9 266.6C166.1 264.7 166.2 262.8 166.2 261C166.2 244.3 158 230.3 158 230.3C158 230.3 149.8 244.3 149.8 261C149.8 262.8 149.9 264.7 150.1 266.6C151.5 252.4 158 241.3 158 241.3Z" fill="url(#paint3_linear_5_5)"/>
<path d="M170.8 216C195.2 189.8 200.2 168.4 189.5 141.4C186.7 138.5 185 134.1 183.3 129.6C182.6 127.9 174.4 122.4 174.8 120.7C174.8 120.5 175.8 120.3 175.8 120C175.8 120 149.5 127.5 144 149.4C146.3 154.8 148.7 160.3 151 165.9C153.5 172 153.6 178.5 152 185.7C157.3 196.1 164.2 206.6 170.8 216Z" fill="url(#paint4_linear_5_5)"/>
<path d="M149 161.1C135.3 127.9 118.5 99 141.9 73.3C141.9 73.3 128.6 68.1 125.3 51.2C125.3 51.2 129.8 59.4 151.2 56C181.1 51.2 195.4 70.5 195.4 81.6C195.4 81.6 178.6 73.6 169.6 86C162.8 95.3 178.2 116.6 183.7 127.6C199.9 160.4 195.7 184.1 165.2 215C127.8 252.9 155.7 318.6 155.7 318.6C155.7 318.6 103.8 272.5 128.9 227.2C144.2 199.2 156 178.2 149 161.1Z" fill="url(#paint5_linear_5_5)"/>
<path d="M173 155.4C171.1 128.9 132.9 120.1 132.9 120.1C132.9 120.3 133 120.5 133 120.8C133.4 122.5 133.6 124.3 133.6 126.1C133.6 136.4 126.9 144.8 118.6 144.8C110.3 144.8 103.6 136.4 103.6 126.1C103.6 120.4 105.7 115.2 109 111.8C107.1 110 105 108.2 102.9 106.4C65.8 75.8 78.9 9.1 114.9 0.799999C114.9 0.799999 91.6 -0.600004 77.9 14.2C73.2 19.2 66.8 29.2 67.2 42.9C65.1 39.2 63.9 33.3 66.2 25.7C62.9 29.9 59.8 34.9 57.3 40.6C38.7 82.4 79.9 126.1 79.9 126.1C79.9 126.1 10.1 71.5 54.2 28C54.2 28 21.9 42.3 21.9 73.9C21.9 82.5 25.3 95 37.8 105.4C37.8 105.4 27.9 102.8 20.9 91.8C20.7 96.5 21.6 103.7 28.3 113C68.9 169.5 10.6 141.8 0.699997 107.3C0.699997 107.3 -2.9 125 6.6 143.4C12.6 155.1 22.6 163.9 46.7 169.9C46.7 169.9 36.2 172 24.4 167.2C29.1 175.3 41.2 183.9 53.1 190.1C109.5 219.3 24.4 197.7 1.2 161.9C1.3 162.6 7.6 191.2 31.9 215.3C41 223.2 58.3 233.5 86.9 233.3C86.9 233.3 76.5 236.6 59 234.8C71.4 241.1 86.3 245.7 104.2 247.3C107.6 272.8 122.5 294.4 122.5 294.4C122.5 294.4 114.7 262 126.3 242.9C136.6 226.2 174.8 181.5 173 155.4Z" fill="url(#paint6_linear_5_5)"/>
<path d="M39.9 168.1C40.4 168 40.7 168 40.7 168C38.5 167.5 36.4 166.9 34.5 166.3C36.2 166.9 38 167.5 39.9 168.1Z" fill="url(#paint7_linear_5_5)"/>
<path d="M173 155.4C171.1 128.9 132.9 120.1 132.9 120.1C132.9 120.2 132.9 120.3 132.9 120.4C143.3 124.8 163.6 135.8 164.9 155.5C166.7 181.5 133.5 224.2 123.1 241.2C111.5 260.2 122.3 294.7 122.3 294.7C122.3 294.7 114.5 262.2 126.1 243.2C136.6 226.2 174.8 181.5 173 155.4Z" fill="url(#paint8_linear_5_5)"/>
<path d="M56.6 200.3C56.1 200.1 55.5 199.9 55 199.7C54.5 199.5 53.9 199.3 53.3 199C52.7 198.8 52.1 198.5 51.5 198.3C50.4 197.8 49.2 197.3 48 196.8C46.8 196.3 45.6 195.7 44.3 195.1C44.2 195.1 44.1 195 44.1 195C43.5 194.7 42.9 194.4 42.3 194.1C42.2 194.1 42.2 194 42.1 194C41.5 193.7 40.9 193.4 40.3 193.1C40.2 193.1 40.2 193 40.1 193C39.5 192.7 38.9 192.4 38.4 192.1C38.3 192.1 38.2 192 38.1 192C37.6 191.7 37.1 191.5 36.7 191.2C36.5 191.1 36.3 191 36.1 190.9C35.6 190.6 35.2 190.4 34.7 190.1C34.5 190 34.3 189.9 34.1 189.8C32.8 189.1 31.5 188.3 30.3 187.6C30.2 187.6 30.2 187.5 30.1 187.5C28.4 186.5 26.7 185.4 25 184.3C24.8 184.2 24.6 184 24.3 183.9C23.9 183.6 23.5 183.3 23.1 183.1C22.8 182.9 22.5 182.7 22.3 182.5C22 182.3 21.6 182 21.3 181.8C21 181.6 20.7 181.4 20.4 181.2C20.1 181 19.8 180.7 19.4 180.5C19.1 180.3 18.8 180 18.5 179.8C18.2 179.6 17.9 179.3 17.6 179.1C17.4 178.9 17.2 178.8 17 178.6C16 177.8 15 177 14.1 176.2C13.8 175.9 13.5 175.7 13.2 175.4C12.9 175.2 12.7 175 12.4 174.7C12.1 174.4 11.8 174.2 11.5 173.9C11.3 173.7 11 173.4 10.8 173.2C10.7 173.1 10.7 173.1 10.6 173C10.1 172.6 9.7 172.1 9.2 171.7C8.9 171.4 8.6 171.1 8.4 170.9C7.2 169.6 6 168.4 4.9 167C4.6 166.7 4.4 166.4 4.1 166C3.7 165.5 3.3 165 2.9 164.5C2.9 164.4 2.8 164.4 2.8 164.3C2.7 164.1 2.5 163.9 2.4 163.7C2 163.2 1.6 162.6 1.3 162V162.1C1.3 162.1 1.3 162.1 1.3 162.2V162.3V162.4V162.5C1.3 162.6 1.3 162.6 1.3 162.7C1.3 162.7 1.3 162.7 1.3 162.8C1.3 162.9 1.3 162.9 1.3 163C1.3 163.1 1.3 163.1 1.4 163.2C1.4 163.3 1.4 163.3 1.4 163.4C1.4 163.5 1.4 163.6 1.5 163.7C1.5 163.8 1.6 163.9 1.6 164C1.6 164.2 1.7 164.4 1.8 164.6C1.8 164.7 1.9 164.8 1.9 165C1.9 165.1 2 165.3 2 165.5C2 165.6 2.1 165.7 2.1 165.8C2.2 166.1 2.3 166.3 2.3 166.6C2.3 166.7 2.4 166.9 2.4 167C2.5 167.2 2.5 167.4 2.6 167.5C2.7 167.7 2.7 167.9 2.8 168.1C2.8 168.2 2.9 168.3 2.9 168.4C3 168.6 3 168.8 3.1 168.9C3.1 169 3.1 169 3.2 169.1C3.8 171 4.7 173.3 5.7 175.9C21.4 188.5 44.5 196.8 56.6 200.3Z" fill="url(#paint9_linear_5_5)"/>
<path d="M96.9 104.4C99.1 106.2 101.1 108 103 109.8C99.7 113.2 97.6 118.4 97.6 124.1C97.6 134.1 108.2 144 116.1 144.5C116.1 144.5 116.1 144.5 116 144.5C109.3 143.1 104.2 136.1 103.6 127.5C103.6 127 103.5 126.6 103.5 126.1C103.5 120.4 105.6 115.2 108.9 111.8C107 110 104.9 108.2 102.8 106.4C65.7 75.8 78.8 9.1 114.8 0.799999C114.8 0.799999 106.1 1.2 97.7 6C68.8 22.3 63.1 76.4 96.9 104.4Z" fill="url(#paint10_linear_5_5)"/>
<path d="M79.9 126.1C79.9 126.1 79.4 125.5 78.3 124.3C79.3 125.5 79.9 126.1 79.9 126.1Z" fill="url(#paint11_linear_5_5)"/>
<path d="M79.9 126.1C79.9 126.1 71.9 119.8 63 109.8C62.7 109.5 62.5 109.2 62.2 108.9C62.1 108.8 62.1 108.8 62 108.7C61.6 108.2 61.1 107.7 60.7 107.2C60.6 107.1 60.5 107 60.4 106.9C60.2 106.6 60 106.4 59.7 106.1C59.6 106 59.5 105.8 59.4 105.7C59 105.3 58.7 104.8 58.3 104.4C58.2 104.2 58 104.1 57.9 103.9C57.7 103.6 57.5 103.4 57.3 103.1C57.1 102.9 57 102.7 56.8 102.5C56.5 102.1 56.2 101.7 55.9 101.4C55.7 101.2 55.5 100.9 55.4 100.7C55.2 100.5 55.1 100.2 54.9 100C54.7 99.7 54.5 99.4 54.3 99.1C54.1 98.8 53.9 98.5 53.6 98.2C53.4 97.9 53.2 97.6 53 97.3C52.8 97.1 52.7 96.9 52.5 96.6C52.2 96.2 52 95.8 51.7 95.4C51.6 95.2 51.4 95 51.3 94.7C51.1 94.4 50.9 94 50.6 93.7C50.5 93.5 50.3 93.3 50.2 93.1C49.9 92.6 49.6 92.1 49.3 91.7C49.2 91.6 49.1 91.4 49 91.3C48.8 90.9 48.5 90.5 48.3 90.1C48.2 89.9 48.1 89.7 48 89.5C47.7 89 47.4 88.5 47.2 88C47.1 87.9 47.1 87.7 47 87.6C46.8 87.2 46.6 86.8 46.3 86.3C46.2 86.1 46.1 86 46 85.8C45.7 85.3 45.5 84.7 45.2 84.2C45.1 84.1 45.1 83.9 45 83.8C44.8 83.3 44.6 82.9 44.4 82.4C44.3 82.2 44.3 82.1 44.2 81.9C44 81.3 43.7 80.8 43.5 80.2C43.5 80.1 43.4 80 43.4 79.8C43.2 79.3 43 78.8 42.8 78.4C42.7 78.3 42.7 78.1 42.6 78C42.4 77.4 42.2 76.8 42 76.3C42 76.2 41.9 76.1 41.9 75.9C41.7 75.4 41.6 74.9 41.4 74.4C41.4 74.3 41.3 74.1 41.3 74C41.1 73.4 41 72.8 40.8 72.2C40.8 72.1 40.7 72 40.7 71.8C40.6 71.3 40.5 70.8 40.3 70.2C40.3 70.1 40.2 70 40.2 69.8C40.1 69.2 40 68.6 39.9 68C39.9 67.9 39.9 67.8 39.8 67.6C39.7 67.1 39.6 66.5 39.6 66C39.6 65.9 39.6 65.8 39.6 65.7C39.5 65.1 39.5 64.5 39.4 63.9C39.4 63.8 39.4 63.7 39.4 63.5C39.4 63 39.3 62.4 39.3 61.9C39.3 61.8 39.3 61.7 39.3 61.6C39.3 61 39.3 60.4 39.3 59.7C39.3 59.6 39.3 59.4 39.3 59.3C39.3 58.7 39.3 58.2 39.4 57.6C39.4 57.5 39.4 57.4 39.4 57.3C39.4 56.7 39.5 56 39.6 55.4C39.6 55.3 39.6 55.1 39.7 55C39.8 54.4 39.9 53.9 39.9 53.3C39.9 53.2 39.9 53.1 39.9 53C40 52.4 40.1 51.7 40.3 51.1C40.3 51 40.4 50.8 40.4 50.7C40.5 50.1 40.7 49.6 40.8 49C40.8 48.9 40.8 48.8 40.9 48.8C41.1 48.2 41.3 47.5 41.5 46.9C41.5 46.8 41.6 46.6 41.6 46.5C41.8 45.9 42 45.4 42.2 44.8C42.2 44.7 42.3 44.7 42.3 44.6C42.6 44 42.8 43.4 43.1 42.7C43.2 42.6 43.2 42.4 43.3 42.3C43.6 41.7 43.9 41.1 44.2 40.6C44.2 40.5 44.3 40.5 44.3 40.4C44.6 39.8 45 39.2 45.4 38.5C45.5 38.4 45.6 38.2 45.7 38.1C46.1 37.5 46.4 36.9 46.8 36.3L46.9 36.2C47.3 35.6 47.8 35 48.2 34.4C48.3 34.3 48.4 34.1 48.5 34C49 33.4 49.4 32.8 49.9 32.2C49.9 32.2 49.9 32.2 50 32.1C50.5 31.5 51.1 30.9 51.6 30.3C51.7 30.2 51.9 30 52 29.9C52.6 29.3 53.2 28.7 53.8 28.1C53.8 28.1 46.1 31.5 38.2 38.8C15.7 87.5 79.9 126.1 79.9 126.1Z" fill="url(#paint12_linear_5_5)"/>
<path d="M0.699997 107.5V107.6V107.7V107.8C0.699997 107.8 0.699997 107.9 0.699997 108C0.699997 108.1 0.699997 108.1 0.699997 108.2C0.699997 108.3 0.699997 108.3 0.699997 108.4C0.699997 108.5 0.699997 108.5 0.699997 108.6C0.699997 108.7 0.699997 108.8 0.699997 108.9C0.699997 109 0.699997 109 0.699997 109.1C0.699997 109.2 0.699997 109.3 0.699997 109.4C0.699997 109.5 0.699997 109.6 0.699997 109.6C0.699997 109.7 0.699997 109.8 0.699997 110C0.699997 110.1 0.699997 110.2 0.699997 110.3C0.699997 110.4 0.699997 110.6 0.699997 110.7C0.699997 110.8 0.699997 110.9 0.699997 111C0.699997 111.1 0.699997 111.3 0.699997 111.5C0.699997 111.6 0.699997 111.7 0.699997 111.8C0.699997 112 0.699997 112.1 0.699997 112.3C0.699997 112.4 0.699997 112.5 0.699997 112.7C0.699997 112.9 0.699997 113.1 0.699997 113.2C0.699997 113.3 0.699997 113.5 0.699997 113.6C0.699997 113.8 0.699997 114 0.699997 114.2C0.699997 114.3 0.699997 114.5 0.699997 114.6C0.699997 114.8 0.699997 115 0.699997 115.2C0.699997 115.3 0.699997 115.4 0.699997 115.6C0.699997 116.2 0.699997 116.8 0.699997 117.4C8.9 130.8 24.9 142.1 35.7 145C24.6 141.8 6 125.6 0.699997 107.5C0.699997 107.4 0.699997 107.4 0.699997 107.5Z" fill="url(#paint13_linear_5_5)"/>
<path d="M259.4 200.3C259.9 200.1 260.5 199.9 261 199.7C261.5 199.5 262.1 199.3 262.7 199C263.3 198.8 263.9 198.5 264.5 198.3C265.6 197.8 266.8 197.3 268 196.8C269.2 196.3 270.4 195.7 271.7 195.1C271.8 195.1 271.9 195 271.9 195C272.5 194.7 273.1 194.4 273.7 194.1C273.8 194.1 273.8 194 273.9 194C274.5 193.7 275.1 193.4 275.7 193.1C275.8 193.1 275.8 193 275.9 193C276.5 192.7 277.1 192.4 277.6 192.1C277.7 192.1 277.8 192 277.9 192C278.4 191.7 278.9 191.5 279.3 191.2C279.5 191.1 279.7 191 279.9 190.9C280.4 190.6 280.8 190.4 281.3 190.1C281.5 190 281.7 189.9 281.9 189.8C283.2 189.1 284.5 188.3 285.7 187.6C285.8 187.6 285.8 187.5 285.9 187.5C287.6 186.5 289.3 185.4 291 184.3C291.2 184.2 291.4 184 291.7 183.9C292.1 183.6 292.5 183.3 292.9 183.1C293.2 182.9 293.5 182.7 293.7 182.5C294 182.3 294.4 182 294.7 181.8C295 181.6 295.3 181.4 295.6 181.2C295.9 181 296.2 180.7 296.6 180.5C296.9 180.3 297.2 180 297.5 179.8C297.8 179.6 298.1 179.3 298.4 179.1C298.6 178.9 298.8 178.8 299 178.6C300 177.8 301 177 301.9 176.2C302.2 175.9 302.5 175.7 302.8 175.4C303.1 175.2 303.3 175 303.6 174.7C303.9 174.4 304.2 174.2 304.5 173.9C304.7 173.7 305 173.4 305.2 173.2C305.3 173.1 305.3 173.1 305.4 173C305.9 172.6 306.3 172.1 306.8 171.7C307.1 171.4 307.4 171.1 307.6 170.9C308.8 169.6 310 168.4 311.1 167C311.4 166.7 311.6 166.4 311.9 166C312.3 165.5 312.7 165 313.1 164.5C313.1 164.4 313.2 164.4 313.2 164.3C313.3 164.1 313.5 163.9 313.6 163.7C314 163.2 314.4 162.6 314.7 162V162.1C314.7 162.1 314.7 162.1 314.7 162.2V162.3V162.4V162.5C314.7 162.6 314.7 162.6 314.7 162.7C314.7 162.7 314.7 162.7 314.7 162.8C314.7 162.9 314.7 162.9 314.7 163C314.7 163.1 314.7 163.1 314.6 163.2C314.6 163.3 314.6 163.3 314.5 163.4C314.5 163.5 314.5 163.6 314.4 163.7C314.4 163.8 314.3 163.9 314.3 164C314.3 164.2 314.2 164.4 314.1 164.6C314.1 164.7 314 164.8 314 165C314 165.1 313.9 165.3 313.9 165.5C313.9 165.6 313.8 165.7 313.8 165.8C313.7 166.1 313.6 166.3 313.6 166.6C313.6 166.7 313.5 166.9 313.5 167C313.4 167.2 313.4 167.4 313.3 167.5C313.2 167.7 313.2 167.9 313.1 168.1C313.1 168.2 313 168.3 313 168.4C312.9 168.6 312.9 168.8 312.8 168.9C312.8 169 312.8 169 312.7 169.1C312.1 171 311.2 173.3 310.2 175.9C294.6 188.5 271.5 196.8 259.4 200.3Z" fill="url(#paint14_linear_5_5)"/>
<path d="M219.1 104.4C216.9 106.2 214.9 108 213 109.8C216.3 113.2 218.4 118.4 218.4 124.1C218.4 134.1 207.8 144 199.9 144.5C199.9 144.5 199.9 144.5 200 144.5C206.7 143.1 211.8 136.1 212.4 127.5C212.4 127 212.5 126.6 212.5 126.1C212.5 120.4 210.4 115.2 207.1 111.8C209 110 211.1 108.2 213.2 106.4C250.3 75.8 237.2 9.1 201.2 0.799999C201.2 0.799999 209.9 1.2 218.3 6C247.2 22.3 252.9 76.4 219.1 104.4Z" fill="url(#paint15_linear_5_5)"/>
<path d="M236.1 126.1C236.1 126.1 236.6 125.5 237.7 124.3C236.7 125.5 236.1 126.1 236.1 126.1Z" fill="url(#paint16_linear_5_5)"/>
<path d="M236.1 126.1C236.1 126.1 244.1 119.8 253 109.8C253.3 109.5 253.5 109.2 253.8 108.9C253.9 108.8 253.9 108.8 254 108.7C254.4 108.2 254.9 107.7 255.3 107.2C255.4 107.1 255.5 107 255.6 106.9C255.8 106.6 256 106.4 256.3 106.1C256.4 106 256.5 105.8 256.6 105.7C257 105.3 257.3 104.8 257.7 104.4C257.8 104.2 258 104.1 258.1 103.9C258.3 103.6 258.5 103.4 258.7 103.1C258.9 102.9 259 102.7 259.2 102.5C259.5 102.1 259.8 101.7 260.1 101.4C260.3 101.2 260.5 100.9 260.6 100.7C260.8 100.5 260.9 100.2 261.1 100C261.3 99.7 261.5 99.4 261.7 99.1C261.9 98.8 262.1 98.5 262.4 98.2C262.6 97.9 262.8 97.6 263 97.3C263.2 97.1 263.3 96.9 263.5 96.6C263.8 96.2 264 95.8 264.3 95.4C264.4 95.2 264.6 95 264.7 94.7C264.9 94.4 265.1 94 265.4 93.7C265.5 93.5 265.7 93.3 265.8 93.1C266.1 92.6 266.4 92.1 266.7 91.7C266.8 91.6 266.9 91.4 267 91.3C267.2 90.9 267.5 90.5 267.7 90.1C267.8 89.9 267.9 89.7 268 89.5C268.3 89 268.6 88.5 268.8 88C268.9 87.9 268.9 87.7 269 87.6C269.2 87.2 269.4 86.8 269.7 86.3C269.8 86.1 269.9 86 270 85.8C270.3 85.3 270.5 84.7 270.8 84.2C270.9 84.1 270.9 83.9 271 83.8C271.2 83.3 271.4 82.9 271.6 82.4C271.7 82.2 271.7 82.1 271.8 81.9C272 81.3 272.3 80.8 272.5 80.2C272.5 80.1 272.6 80 272.6 79.8C272.8 79.3 273 78.8 273.2 78.4C273.3 78.3 273.3 78.1 273.4 78C273.6 77.4 273.8 76.8 274 76.3C274 76.2 274.1 76.1 274.1 75.9C274.3 75.4 274.4 74.9 274.6 74.4C274.6 74.3 274.7 74.1 274.7 74C274.9 73.4 275 72.8 275.2 72.2C275.2 72.1 275.3 72 275.3 71.8C275.4 71.3 275.5 70.8 275.7 70.2C275.7 70.1 275.8 70 275.8 69.8C275.9 69.2 276 68.6 276.1 68C276.1 67.9 276.1 67.8 276.2 67.6C276.3 67.1 276.4 66.5 276.4 66C276.4 65.9 276.4 65.8 276.4 65.7C276.5 65.1 276.5 64.5 276.6 63.9C276.6 63.8 276.6 63.7 276.6 63.5C276.6 63 276.7 62.4 276.7 61.9C276.7 61.8 276.7 61.7 276.7 61.6C276.7 61 276.7 60.4 276.7 59.7C276.7 59.6 276.7 59.4 276.7 59.3C276.7 58.7 276.7 58.2 276.6 57.6C276.6 57.5 276.6 57.4 276.6 57.3C276.6 56.7 276.5 56 276.4 55.4C276.4 55.3 276.4 55.1 276.4 55C276.3 54.4 276.2 53.9 276.2 53.3C276.2 53.2 276.2 53.1 276.2 53C276.1 52.4 276 51.7 275.8 51.1C275.8 51 275.7 50.8 275.7 50.7C275.6 50.1 275.4 49.6 275.3 49C275.3 48.9 275.3 48.8 275.2 48.8C275 48.2 274.8 47.5 274.6 46.9C274.6 46.8 274.5 46.6 274.5 46.5C274.3 45.9 274.1 45.4 273.9 44.8C273.9 44.7 273.8 44.7 273.8 44.6C273.5 44 273.3 43.4 273 42.7C272.9 42.6 272.9 42.4 272.8 42.3C272.5 41.7 272.2 41.1 271.9 40.6C271.9 40.5 271.8 40.5 271.8 40.4C271.5 39.8 271.1 39.2 270.7 38.5C270.6 38.4 270.5 38.2 270.4 38.1C270 37.5 269.7 36.9 269.3 36.3L269.2 36.2C268.8 35.6 268.3 35 267.9 34.4C267.8 34.3 267.7 34.1 267.6 34C267.1 33.4 266.7 32.8 266.2 32.2C266.2 32.2 266.2 32.2 266.1 32.1C265.6 31.5 265 30.9 264.5 30.3C264.4 30.2 264.2 30 264.1 29.9C263.5 29.3 262.9 28.7 262.3 28.1C262.3 28.1 270 31.5 277.9 38.8C300.3 87.5 236.1 126.1 236.1 126.1Z" fill="url(#paint17_linear_5_5)"/>
<path d="M315.3 107.5V107.6V107.7V107.8C315.3 107.8 315.3 107.9 315.3 108C315.3 108.1 315.3 108.1 315.3 108.2C315.3 108.3 315.3 108.3 315.3 108.4C315.3 108.5 315.3 108.5 315.3 108.6C315.3 108.7 315.3 108.8 315.3 108.9C315.3 109 315.3 109 315.3 109.1C315.3 109.2 315.3 109.3 315.3 109.4C315.3 109.5 315.3 109.6 315.3 109.6C315.3 109.7 315.3 109.8 315.3 110C315.3 110.1 315.3 110.2 315.3 110.3C315.3 110.4 315.3 110.6 315.3 110.7C315.3 110.8 315.3 110.9 315.3 111C315.3 111.1 315.3 111.3 315.3 111.5C315.3 111.6 315.3 111.7 315.3 111.8C315.3 112 315.3 112.1 315.3 112.3C315.3 112.4 315.3 112.5 315.3 112.7C315.3 112.9 315.3 113.1 315.3 113.2C315.3 113.3 315.3 113.5 315.3 113.6C315.3 113.8 315.3 114 315.3 114.2C315.3 114.3 315.3 114.5 315.3 114.6C315.3 114.8 315.3 115 315.3 115.2C315.3 115.3 315.3 115.4 315.3 115.6C315.3 116.2 315.3 116.8 315.3 117.4C307.1 130.8 291.1 142.1 280.3 145C291.4 141.8 310 125.6 315.3 107.5C315.3 107.4 315.3 107.4 315.3 107.5Z" fill="url(#paint18_linear_5_5)"/>
<defs>
<linearGradient id="paint0_linear_5_5" x1="161.756" y1="318.533" x2="161.756" y2="181.251" gradientUnits="userSpaceOnUse">
<stop stop-color="#FFAB40"/>
<stop offset="1" stop-color="#BF360C"/>
</linearGradient>
<linearGradient id="paint1_linear_5_5" x1="229.433" y1="294.613" x2="229.433" y2="0.783514" gradientUnits="userSpaceOnUse">
<stop stop-color="#BF360C"/>
<stop offset="1" stop-color="#FFAB40"/>
</linearGradient>
<linearGradient id="paint2_linear_5_5" x1="202.02" y1="149.255" x2="142.313" y2="305.225" gradientUnits="userSpaceOnUse">
<stop stop-color="#BF360C"/>
<stop offset="1" stop-color="#FFAB40"/>
</linearGradient>
<linearGradient id="paint3_linear_5_5" x1="185.75" y1="185.51" x2="151.943" y2="273.823" gradientUnits="userSpaceOnUse">
<stop stop-color="#FFAB40"/>
<stop offset="1" stop-color="#BF360C"/>
</linearGradient>
<linearGradient id="paint4_linear_5_5" x1="169.41" y1="216.035" x2="169.41" y2="120.113" gradientUnits="userSpaceOnUse">
<stop stop-color="#BF360C"/>
<stop offset="1" stop-color="#FFAB40"/>
</linearGradient>
<linearGradient id="paint5_linear_5_5" x1="158.603" y1="318.533" x2="158.603" y2="51.1638" gradientUnits="userSpaceOnUse">
<stop stop-color="#FFAB40"/>
<stop offset="1" stop-color="#BF360C"/>
</linearGradient>
<linearGradient id="paint6_linear_5_5" x1="86.5667" y1="294.613" x2="86.5667" y2="0.783514" gradientUnits="userSpaceOnUse">
<stop stop-color="#BF360C"/>
<stop offset="1" stop-color="#FFAB40"/>
</linearGradient>
<linearGradient id="paint7_linear_5_5" x1="37.6196" y1="168.116" x2="37.6196" y2="166.29" gradientUnits="userSpaceOnUse">
<stop stop-color="#BF360C"/>
<stop offset="1" stop-color="#FFAB40"/>
</linearGradient>
<linearGradient id="paint8_linear_5_5" x1="145.466" y1="294.613" x2="145.466" y2="120.113" gradientUnits="userSpaceOnUse">
<stop stop-color="#BF360C"/>
<stop offset="1" stop-color="#FFAB40"/>
</linearGradient>
<linearGradient id="paint9_linear_5_5" x1="-13.4448" y1="158.982" x2="65.5551" y2="207.482" gradientUnits="userSpaceOnUse">
<stop stop-color="#FFAB40"/>
<stop offset="1" stop-color="#BF360C"/>
</linearGradient>
<linearGradient id="paint10_linear_5_5" x1="94.925" y1="144.47" x2="94.925" y2="0.819692" gradientUnits="userSpaceOnUse">
<stop stop-color="#FFAB40"/>
<stop offset="1" stop-color="#BF360C"/>
</linearGradient>
<linearGradient id="paint11_linear_5_5" x1="79.0895" y1="126.078" x2="79.0895" y2="124.304" gradientUnits="userSpaceOnUse">
<stop stop-color="#FFAB40"/>
<stop offset="1" stop-color="#BF360C"/>
</linearGradient>
<linearGradient id="paint12_linear_5_5" x1="56.7468" y1="126.078" x2="56.7468" y2="28.0252" gradientUnits="userSpaceOnUse">
<stop stop-color="#FFAB40"/>
<stop offset="1" stop-color="#BF360C"/>
</linearGradient>
<linearGradient id="paint13_linear_5_5" x1="37.7232" y1="148.96" x2="-3.94331" y2="109.627" gradientUnits="userSpaceOnUse">
<stop stop-color="#BF360C"/>
<stop offset="1" stop-color="#FFAB40"/>
</linearGradient>
<linearGradient id="paint14_linear_5_5" x1="329.447" y1="158.982" x2="250.447" y2="207.482" gradientUnits="userSpaceOnUse">
<stop stop-color="#FFAB40"/>
<stop offset="1" stop-color="#BF360C"/>
</linearGradient>
<linearGradient id="paint15_linear_5_5" x1="221.077" y1="144.47" x2="221.077" y2="0.819692" gradientUnits="userSpaceOnUse">
<stop stop-color="#FFAB40"/>
<stop offset="1" stop-color="#BF360C"/>
</linearGradient>
<linearGradient id="paint16_linear_5_5" x1="236.913" y1="126.078" x2="236.913" y2="124.304" gradientUnits="userSpaceOnUse">
<stop stop-color="#FFAB40"/>
<stop offset="1" stop-color="#BF360C"/>
</linearGradient>
<linearGradient id="paint17_linear_5_5" x1="259.255" y1="126.078" x2="259.255" y2="28.0252" gradientUnits="userSpaceOnUse">
<stop stop-color="#FFAB40"/>
<stop offset="1" stop-color="#BF360C"/>
</linearGradient>
<linearGradient id="paint18_linear_5_5" x1="278.279" y1="148.96" x2="319.945" y2="109.627" gradientUnits="userSpaceOnUse">
<stop stop-color="#BF360C"/>
<stop offset="1" stop-color="#FFAB40"/>
</linearGradient>
</defs>
</svg>
